<svg xmlns="http://www.w3.org/2000/svg" width="140" height="36" viewBox="0 0 140 36" fill="none" aria-hidden="true">
  <path d="M18 3L32 11v12c0 9.1-6.3 17.6-15 19.6C8.3 40.6 2 32.1 2 23V11L18 3z" fill="#1D6FF2"/>
  <path d="M18 10L27 15v8c0 5.5-3.9 10.8-9 12.5-5.1-1.7-9-7-9-12.5v-8l9-5z" fill="#0B1F3A" opacity="0.95"/>
  <path d="M44 24V12h4.2c2.6 0 4.5 1.9 4.5 4.3 0 1.2-.5 2.3-1.3 3.1l3.1 4.6h-2.3l-2.8-4.2h-1.4V24H44zm4-6.6c1.1 0 1.9-.8 1.9-1.9 0-1.1-.8-1.9-1.9-1.9H46.2v3.8H48zM57.6 24V12h6.4v1.8h-4.4v3.2h3.8v1.8h-3.8v3.4h4.5V24h-6.5zM66.8 18c0-3.6 2.8-6.3 6.5-6.3s6.5 2.7 6.5 6.3-2.8 6.3-6.5 6.3-6.5-2.7-6.5-6.3zm10.1 0c0-2.1-1.5-3.6-3.6-3.6s-3.6 1.5-3.6 3.6 1.5 3.6 3.6 3.6 3.6-1.5 3.6-3.6zM82.4 24l4.8-12h2.2l4.8 12h-2.3l-1.1-2.9h-5l-1.1 2.9h-2.3zm5.2-8.7l-1.7 4.7h3.5l-1.7-4.7h-0.1z" fill="white"/>
  <path d="M96 24V12h4c3.2 0 5.3 2 5.3 4.6 0 1.4-.6 2.7-1.7 3.5L106 24h-2.4l-2.8-3.4H98.2V24H96zm4.1-6.6c1.4 0 2.2-.8 2.2-2.1 0-1.3-.8-2.1-2.2-2.1H98.2v4.2h1.9zM109 12h2v10.2h4.5V24h-6.5V12z" fill="white"/>
</svg>
